<?xml version="1.0" standalone="no"?>
<!DOCTYPE svg PUBLIC "-//W3C//DTD SVG 20010904//EN"
 "http://www.w3.org/TR/2001/REC-SVG-20010904/DTD/svg10.dtd">
<svg version="1.0" xmlns="http://www.w3.org/2000/svg"
 width="96.000000pt" height="96.000000pt" viewBox="0 0 96.000000 96.000000"
 preserveAspectRatio="xMidYMid meet">

<g transform="translate(0.000000,96.000000) scale(0.100000,-0.100000)"
fill="#000000" stroke="none">
<path d="M425 855 c-31 -30 -32 -73 -5 -108 12 -16 20 -40 20 -65 l0 -40 -89
-4 c-96 -3 -123 -15 -165 -72 -18 -23 -22 -45 -24 -137 l-4 -109 -39 0 c-39 0
-39 0 -39 -40 l0 -40 40 0 40 0 0 -55 c0 -46 4 -60 25 -80 l24 -25 271 0 271
0 24 25 c21 20 25 34 25 80 l0 55 40 0 40 0 0 40 c0 40 0 40 -39 40 l-39 0 -4
109 c-2 92 -6 114 -24 137 -42 57 -69 69 -165 72 l-89 4 0 40 c0 25 8 49 20
65 42 54 7 133 -60 133 -19 0 -40 -9 -55 -25z m-45 -395 c11 -11 20 -29 20
-40 0 -26 -34 -60 -60 -60 -11 0 -29 9 -40 20 -11 11 -20 29 -20 40 0 11 9 29
20 40 11 11 29 20 40 20 11 0 29 -9 40 -20z m280 0 c11 -11 20 -29 20 -40 0
-26 -34 -60 -60 -60 -11 0 -29 9 -40 20 -11 11 -20 29 -20 40 0 11 9 29 20 40
11 11 29 20 40 20 11 0 29 -9 40 -20z m-60 -260 l0 -40 -120 0 -120 0 0 40 0
40 120 0 120 0 0 -40z"/>
</g>
</svg>
